<svg width="56" height="56" viewBox="0 0 56 56" fill="none" xmlns="http://www.w3.org/2000/svg">
<path d="M18.6667 40.075V15.925C18.6667 15.2639 18.9 14.7097 19.3667 14.2625C19.8333 13.8153 20.3778 13.5917 21 13.5917C21.1944 13.5917 21.3986 13.6208 21.6125 13.6792C21.8264 13.7375 22.0306 13.825 22.225 13.9417L41.2417 26.0167C41.5917 26.25 41.8542 26.5417 42.0292 26.8917C42.2042 27.2417 42.2917 27.6111 42.2917 28C42.2917 28.3889 42.2042 28.7583 42.0292 29.1083C41.8542 29.4583 41.5917 29.75 41.2417 29.9833L22.225 42.0583C22.0306 42.175 21.8264 42.2625 21.6125 42.3208C21.3986 42.3792 21.1944 42.4083 21 42.4083C20.3778 42.4083 19.8333 42.1847 19.3667 41.7375C18.9 41.2903 18.6667 40.7361 18.6667 40.075Z" fill="white"/>
</svg>
